<?xml version="1.0" encoding="UTF-8"?>
<!DOCTYPE svg PUBLIC "-//W3C//DTD SVG 1.1//EN" "http://www.w3.org/Graphics/SVG/1.1/DTD/svg11.dtd">
<!-- Creator: CorelDRAW 2018 (64-Bit) -->
<svg xmlns="http://www.w3.org/2000/svg" xml:space="preserve" width="45.7198mm" height="8.8898mm" version="1.1" style="shape-rendering:geometricPrecision; text-rendering:geometricPrecision; image-rendering:optimizeQuality; fill-rule:evenodd; clip-rule:evenodd"
viewBox="0 0 4571.98 888.98"
 xmlns:xlink="http://www.w3.org/1999/xlink">
 <defs>
  <style type="text/css">
   <![CDATA[
    .fil1 {fill:#474747}
    .fil0 {fill:#FF9A24}
    .fil3 {fill:#474747;fill-rule:nonzero}
    .fil2 {fill:#FF9A24;fill-rule:nonzero}
   ]]>
  </style>
 </defs>
 <g id="Слой_x0020_1">
  <metadata id="CorelCorpID_0Corel-Layer"/>
  <g id="_1937919920">
   <path class="fil0" d="M832.45 129.27c-20.15,-33.91 -59.53,-51.36 -98.18,-43.5 -16.35,-48.1 -68.6,-73.83 -116.69,-57.47 -27.04,9.19 -48.27,30.43 -57.47,57.47 -38.65,-7.88 -78.04,9.58 -98.17,43.5 -19.63,33.93 -15.23,76.63 10.9,105.85 -26.13,29.21 -30.53,71.91 -10.9,105.85 20.15,33.89 59.54,51.32 98.17,43.44 16.35,48.09 68.6,73.82 116.7,57.47 27.04,-9.2 48.27,-30.43 57.46,-57.47 38.64,7.89 78.03,-9.54 98.18,-43.44 19.63,-33.93 15.23,-76.64 -10.91,-105.85 26.13,-29.22 30.54,-71.92 10.91,-105.85z"/>
   <path class="fil1" d="M244.95 559.73l-176.42 0c-38.95,0.04 -70.52,31.61 -70.57,70.56l0 225.82c0,7.79 6.32,14.12 14.12,14.12l176.42 0c27.28,-0.02 49.38,-22.16 49.36,-49.44 -0.01,-13.26 -5.35,-25.96 -14.83,-35.25 19.49,-19.02 19.86,-50.25 0.84,-69.73 -0.28,-0.28 -0.55,-0.56 -0.84,-0.83 15.07,-14.74 19.12,-37.41 10.1,-56.46l11.82 0c27.28,0 49.4,-22.11 49.4,-49.4 0,-27.28 -22.12,-49.39 -49.4,-49.39zm444.58 -310.5l28.23 0 0 -28.23 -28.23 0 0 28.23zm-56.45 0l28.22 0 0 -28.23 -28.22 0 0 28.23zm-56.46 0l28.23 0 0 -28.23 -28.23 0 0 28.23zm-82.18 -224.88c-129.25,-9.79 -251.45,60.07 -308.61,176.41 -20.08,40.71 -112.55,300.96 -116.48,312.03 -2.54,7.36 1.38,15.4 8.74,17.94 1.47,0.5 3.01,0.76 4.56,0.77l84.68 0 0 -28.23 -64.67 0c22.12,-61.94 92.16,-257.05 108.48,-290.14 52.08,-106.03 163.46,-169.67 281.25,-160.7 13.09,0.95 26.1,2.81 38.93,5.56l5.93 -27.52c-14.11,-3.04 -28.42,-5.08 -42.81,-6.12zm-171.86 281.33c-31.18,0 -56.46,25.28 -56.46,56.46 0,31.18 25.28,56.45 56.46,56.45 31.18,0 56.45,-25.27 56.45,-56.45 0,-31.18 -25.27,-56.46 -56.45,-56.46zm0 84.68c-15.59,0 -28.23,-12.63 -28.23,-28.22 0,-15.59 12.64,-28.23 28.23,-28.23 15.59,0 28.22,12.64 28.22,28.23 0,15.59 -12.63,28.22 -28.22,28.22zm427.91 24.65c-2.58,9.72 -5.67,19.3 -9.25,28.7 -42.08,106.15 -64.38,219.09 -65.82,333.27l0 8.56 -324.62 0 0 -56.45 56.22 0c31.47,-0.11 59.1,-20.95 67.86,-51.18l44.74 -156.66 -27.13 -7.76 -44.75 156.66c-5.26,18.14 -21.84,30.64 -40.72,30.71l-140.9 0 0 28.23 56.46 0 0 70.57c0,7.79 6.32,14.11 14.11,14.11l352.84 0c7.79,0 14.11,-6.32 14.11,-14.11l0 -22.68c1.45,-110.73 23.13,-220.27 63.97,-323.2 3.94,-10.33 7.33,-20.86 10.17,-31.55l-27.29 -7.22zm-505.54 215.28l-134.08 0c-7.79,0 -14.11,6.32 -14.11,14.12 0,7.79 6.32,14.11 14.11,14.11l77.63 0c11.69,0 21.17,9.48 21.17,21.17 0,11.69 -9.48,21.17 -21.17,21.17l-77.63 0c-7.79,0 -14.11,6.32 -14.11,14.12 0,7.79 6.32,14.11 14.11,14.11l77.63 0c11.69,0 21.17,9.48 21.17,21.17 0,11.69 -9.48,21.17 -21.17,21.17l-77.63 0c-7.79,0 -14.11,6.32 -14.11,14.11 0,7.8 6.32,14.12 14.11,14.12l77.63 0c11.69,0 21.17,9.48 21.17,21.17 0,11.69 -9.48,21.17 -21.17,21.17l-162.31 0 0 -211.71c0,-23.38 18.96,-42.34 42.34,-42.34l176.42 0c11.7,0 21.17,9.48 21.17,21.17 0,11.69 -9.47,21.17 -21.17,21.17z"/>
   <path class="fil1" d="M832.44 129.26c-20.14,-33.9 -59.52,-51.35 -98.17,-43.49 -16.35,-48.1 -68.6,-73.83 -116.69,-57.47 -27.04,9.19 -48.27,30.43 -57.47,57.47 -38.65,-7.88 -78.04,9.58 -98.17,43.49 -19.63,33.94 -15.23,76.64 10.91,105.86 -26.14,29.21 -30.54,71.92 -10.91,105.85 20.15,33.89 59.54,51.31 98.17,43.44 16.36,48.09 68.6,73.82 116.7,57.47 27.03,-9.2 48.27,-30.43 57.46,-57.47 38.64,7.89 78.03,-9.54 98.18,-43.44 19.63,-33.93 15.23,-76.64 -10.91,-105.85 26.13,-29.22 30.53,-71.92 10.9,-105.86zm-24.35 197.59c-16.13,27.07 -49.52,38.43 -78.81,26.82 -7.25,-2.88 -15.45,0.66 -18.33,7.91 -0.41,1.03 -0.7,2.1 -0.85,3.2 -5.38,34.73 -37.89,58.53 -72.62,53.16 -27.41,-4.24 -48.92,-25.75 -53.16,-53.16 -1,-6.95 -6.94,-12.11 -13.96,-12.11 -1.79,0 -3.56,0.34 -5.22,1 -29.3,11.62 -62.7,0.25 -78.84,-26.82 -15.57,-27 -8.82,-61.35 15.82,-80.44 6.17,-4.77 7.3,-13.64 2.53,-19.8 -0.73,-0.95 -1.58,-1.8 -2.53,-2.53 -24.78,-19.12 -31.54,-53.64 -15.82,-80.7 16.15,-27.05 49.53,-38.4 78.82,-26.82 7.25,2.88 15.45,-0.66 18.33,-7.9 0.41,-1.03 0.69,-2.11 0.85,-3.21 5.38,-34.73 37.89,-58.53 72.62,-53.16 27.41,4.24 48.92,25.75 53.16,53.16 1.11,7.72 8.27,13.08 15.98,11.97 1.1,-0.16 2.17,-0.45 3.2,-0.86 29.3,-11.6 62.69,-0.24 78.83,26.82 15.61,27.02 8.85,61.41 -15.82,80.52 -6.17,4.76 -7.3,13.63 -2.53,19.79 0.73,0.95 1.58,1.8 2.53,2.53 24.73,19.12 31.49,53.59 15.82,80.63z"/>
   <path class="fil2" d="M1308.43 606.93c-22.86,-23.71 -17.78,-16.09 -35.56,-37.26 32.17,-51.64 44.87,-134.62 44.87,-224.36 0,-32.18 -0.85,-60.96 -1.69,-86.36l0 -4.24c-7.62,-118.53 -33.02,-242.15 -153.25,-242.15 -112.61,0 -164.25,118.54 -164.25,291.26 0,52.49 3.38,138.01 26.24,220.13l0 -0.84c17.78,59.26 62.66,110.06 128.7,110.06 29.63,0 55.88,-11 71.12,-27.94l40.64 49.11c11,9.31 17.78,20.32 28.78,20.32 14.4,0 38.1,-27.09 38.1,-38.1 0,-11.01 -13.54,-17.78 -23.7,-29.63zm-60.96 -358.99c0.84,21.17 2.54,52.49 2.54,86.36 0,56.73 -5.08,123.61 -28.79,169.33l-27.94 -33.86c-5.08,-5.08 -9.31,-9.32 -12.7,-9.32 -10.16,0 -39.79,15.24 -39.79,28.79 0,13.55 40.64,60.11 44.02,66.04 -8.46,10.16 -19.47,12.7 -31.32,12.7 -80.44,-6.77 -88.9,-146.47 -88.9,-215.9 0,-163.41 16.93,-268.4 93.98,-268.4 72.81,0 88.9,117.69 88.9,164.26l0 0z"/>
   <path id="1" class="fil2" d="M1394.79 28.65c-33.02,0 -27.94,21.17 -27.94,32.17 0,22.02 0,28.79 23.71,28.79l13.54 0 0 183.73c0,54.19 1.7,112.61 1.7,140.55 0,90.59 11,217.59 152.4,217.59 100.75,-2.54 138.85,-88.05 138.85,-179.49 0,-16.09 -0.85,-30.48 -0.85,-44.03 0,-85.51 5.08,-171.87 5.08,-257.39l0 -62.65 5.08 0c34.72,0 34.72,-10.16 34.72,-45.72 0,-8.47 -5.93,-13.55 -16.09,-14.4l-102.45 0c-33.02,0 -27.94,21.17 -27.94,32.18 0,22.01 0,28.78 23.71,28.78l13.55 0 0 107.53c-1.7,47.42 -1.7,99.91 -1.7,138.01l0 99.06c0,54.19 4.24,138.85 -80.43,138.85 -57.57,0 -76.2,-72.81 -76.2,-144.78l0 -338.67 5.08 0c34.71,0 34.71,-10.16 34.71,-45.72 0,-8.46 -5.92,-13.54 -16.08,-14.39l-102.45 0z"/>
   <path id="2" class="fil2" d="M1803.73 28.65c-33.02,0 -27.94,22.01 -27.94,30.48 0,19.47 0.85,26.25 23.71,26.25l17.78 0c-0.85,6.77 -1.7,12.56 -1.7,18.48 0,2.54 0.85,5.08 0.85,7.62l0.85 40.64c0,12.7 0.84,26.25 0.84,38.81 0,124.32 -1.69,243.56 -4.23,366.04l-10.16 0c-33.02,0 -27.94,22.02 -27.94,30.48 0,19.48 0.85,26.25 23.71,26.25l90.59 0c-2.54,0 -4.23,-0.85 -4.23,-0.85 33.86,-4.23 36.4,-2.54 36.4,-41.48 0,-8.47 -5.92,-13.55 -16.08,-14.4l-27.1 0c2.54,-70.13 0,-134.34 2.54,-275.59l2.54 -126.72c0,-21.16 0,-45.72 0.85,-69.28l4.23 0c29.64,0.84 33.02,-9.32 33.02,-42.34 0,-8.46 -5.92,-13.54 -16.08,-14.39l-102.45 0z"/>
   <path id="3" class="fil2" d="M2241.46 521.41c0,-33.02 -21.17,-27.94 -34.71,-27.94 -24.56,0 -30.48,0 -30.48,23.71l0 35.56 -128.7 0 5.08 -14.39c3.39,-5.08 5.08,-13.55 8.47,-17.78l11.01 -23.71c55.03,-138.29 110.91,-278.13 165.1,-416.42 2.54,-5.08 12.7,-26.25 12.7,-32.17 0,-8.47 -9.32,-17.93 -22.02,-17.93 -20.32,1.7 -43.18,1.7 -66.04,1.7 -61.8,0 -129.54,-0.85 -184.57,-2.54 -9.31,0 -12.7,5.92 -12.7,22.15l0 70.28c0,-4.24 0,-9.32 0.85,-9.32l0 1.7c0,34.57 12.7,34.57 49.95,34.57 8.47,0 13.55,-5.93 14.39,-16.09l0 -38.1c27.94,0.85 55.88,1.69 84.67,1.69l41.49 0c-61.81,154.1 -120.23,296.34 -180.34,450.43 -4.24,11.01 -10.16,28.79 -10.16,45.72 0,11.86 10.16,16.94 20.32,19.48 9.31,-0.85 18.62,-0.85 27.94,-0.85l27.94 0 169.33 2.54 16.09 0c8.46,0 13.54,-5.08 14.39,-15.24l0 -77.05z"/>
   <path id="4" class="fil2" d="M2645.32 552.74c-33.02,0 -27.94,21.17 -27.94,32.17 0,22.02 0,28.79 23.71,28.79l90.6 0c-1.7,0.85 -3.39,0 -4.24,0 2.54,0 11.01,-0.85 18.63,-0.85 17.78,0 17.78,-21.16 17.78,-44.87 0,-9.31 -5.93,-14.39 -16.09,-15.24l-20.32 0 0 -51.51c0,-25.4 0,-48.96 1.7,-76.9l0 -209.69c0,-35.42 2.54,-73.52 2.54,-113.32l0 -15.94 11 -0.85c34.72,0 34.72,-7.62 34.72,-41.49 0,-8.46 -5.93,-13.54 -16.09,-14.39l-72.82 0c-8.46,0 -11.85,-1.69 -19.47,16.09l-134.62 315.38c-31.33,-74.5 -102.45,-238.48 -133.77,-315.38 -6.78,-16.09 -11.01,-16.09 -18.63,-16.09l-60.96 0c-33.02,0 -27.94,22.01 -27.94,30.48 0,19.47 0.85,26.25 23.71,26.25l18.62 0c0.85,5.92 1.7,11.85 1.7,15.94l1.69 50.8c0,12.7 0.85,25.4 1.69,37.12 0,8.46 -0.84,16.93 -0.84,25.4 0.84,105.69 3.38,230.85 4.23,338.1l-9.31 0c-28.79,0.85 -27.94,13.55 -27.94,33.02 0,22.86 0,29.63 23.7,29.63l5.93 0 53.34 -1.69 28.79 0c26.24,0 34.71,-3.39 34.71,-31.33l0 -16.08c-0.85,-7.62 -6.77,-12.7 -16.09,-13.55l-27.09 0c-0.85,-122.49 -3.39,-225.64 -4.23,-352.5l113.45 270.51c1.69,4.24 5.93,11.01 15.24,11.01 10.16,0 16.93,-5.08 18.63,-9.31 37.25,-87.92 79.58,-198.55 110.91,-274.75 -1.69,131.1 -7.62,221.55 -7.62,355.04l-11.01 0z"/>
   <path id="5" class="fil2" d="M2831.59 561.21c-33.02,0 -27.94,22.01 -27.94,30.48 0,19.47 0.85,26.24 23.71,26.24l5.93 0 82.12 -1.69c17.78,0 17.78,-16.93 17.78,-40.64 0,-8.47 -5.92,-13.55 -16.08,-14.39l-16.09 0c1.69,-11.86 3.39,-27.94 11.85,-62.66l0 0.85c1.7,-9.31 3.39,-25.4 7.62,-43.18l96.52 0.85c5.08,0 9.32,0 20.32,0.84l11.86 40.64c5.08,27.1 7.62,43.18 10.16,54.19l-14.4 0c-33.02,0 -27.94,21.17 -27.94,32.17 0,22.02 0,28.79 23.71,28.79l5.93 0 90.59 -1.69c17.78,0 17.78,-21.17 17.78,-44.88 0,-8.46 -5.93,-13.54 -16.09,-14.39l-15.24 0c-3.38,-16.93 -12.7,-58.42 -40.64,-179.49l-1.69 -3.39c0,-0.85 -0.85,-3.39 -0.85,-4.23l-63.5 -311.58c-5.08,-25.4 -34.71,-25.4 -43.18,-25.4 -11,0 -23.7,3.39 -29.63,25.4l-61.81 308.19c-0.84,3.39 -1.69,5.93 -3.38,9.31l-27.1 109.22c0,0.85 -1.69,5.93 -1.69,7.62l-5.93 25.4c-2.54,17.78 -5.92,36.41 -8.46,47.42l-4.24 0zm147.32 -399.63c0,-1.7 0.85,-4.24 1.7,-6.78 0,4.24 0.84,5.93 1.69,6.78l41.49 233.68c-31.33,0 -56.73,-0.85 -86.36,-0.85l41.48 -232.83z"/>
   <path id="6" class="fil2" d="M3417.49 34.58c0,-33.87 -22.86,-27.94 -34.71,-27.94 -104.14,0 -199.82,37.25 -199.82,161.71 0,138.86 188.81,171.88 188.81,312.42 0,55.04 -22.86,79.59 -79.59,79.59 -27.94,0 -62.65,-2.54 -90.59,-2.54 -12.7,0 -21.17,2.54 -21.17,26.25 0,31.32 35.56,38.1 105.84,38.1 69.42,0 159.17,-27.1 159.17,-138.01 0,-97.37 -81.28,-164.25 -140.55,-220.13 -33.86,-31.33 -49.95,-50.8 -49.95,-93.14 0,-72.81 50.8,-97.37 97.37,-104.14l0 28.79 0 -3.39c0,2.54 1.69,11.85 1.69,17.78 0,17.78 25.4,17.78 49.11,17.78 8.46,0 13.54,-5.93 14.39,-16.09l0 -77.04z"/>
   <path id="7" class="fil2" d="M3616.45 552.74c-33.02,0 -27.94,21.17 -27.94,32.17 0,22.02 0,28.79 23.71,28.79l5.93 0 82.12 0c34.72,0 34.72,-10.3 34.72,-45.86 0,-9.17 -5.93,-14.25 -16.09,-15.1l-24.55 0c0,-14.39 -0.85,-28.79 -0.85,-43.18 0.85,-27.94 0,-55.88 0.85,-83.82l2.54 -206.59c-1.7,-37.25 -3.39,-71.97 -3.39,-126.15l27.09 -1.7c6.78,0 18.63,1.7 38.95,1.7l4.23 0 0 25.4 0 -3.39c0,2.54 1.7,11.85 1.7,17.78 0,17.78 25.4,17.78 49.1,17.78 8.47,0 13.55,-5.93 14.4,-16.09l0 -57.57c0.84,-3.39 0.84,-6.77 0.84,-11.01 0,-20.32 2.54,-34.71 -16.08,-34.71 -85.52,0 -92.29,1.69 -141.4,1.69 -61.8,0 -121.07,-3.38 -143.08,-3.38 -49.96,0 -40.64,0 -44.03,5.08 -7.62,3.38 -5.08,26.24 -5.08,33.86 0,6.78 0,11.86 0.85,16.09l0 34.71c0,-2.54 0,-5.08 0.84,-5.08l0 1.7c0,34.71 12.7,34.71 49.96,34.71 8.46,0 13.54,-5.93 14.39,-16.09l0 -39.79c20.32,0 40.64,0.85 59.27,0.85 5.92,0 13.54,-0.85 21.16,-0.85 0,8.47 2.54,18.63 2.54,23.71 -0.84,5.08 -1.69,13.54 -1.69,19.47l1.69 21.17c0.85,10.16 0.85,20.32 0.85,29.63l0 49.11 -1.69 184.57c0.84,10.16 0.84,20.32 0.84,30.48l-0.84 99.91 -11.86 0z"/>
   <path id="8" class="fil2" d="M3893.31 28.65c-33.02,0 -27.94,22.01 -27.94,30.48 0,19.47 0.85,26.25 23.71,26.25l16.93 0 0 226.91c0,7.62 -0.85,17.78 -0.85,27.09 0,22.01 0.85,44.03 0.85,68.58l0 15.24 -1.69 79.59c0,13.54 -0.85,27.09 -0.85,40.64l0 9.31 -10.16 0c-33.02,0 -27.94,21.17 -27.94,32.17 0,22.02 0,28.79 23.71,28.79l90.59 0c-2.54,0.85 -4.23,0.85 -4.23,0l8.46 0c11.86,-0.85 25.4,-0.85 39.8,-0.85 17.78,0 36.4,0.85 55.88,0.85 9.31,0 18.62,-0.85 27.09,-0.85 3.39,0 6.77,0.85 11.01,0.85 9.31,0 16.93,0 22.01,-0.85l1.69 0c6.78,0 14.4,-4.23 14.4,-16.22l0 -77.19c0,-33.16 -21.17,-28.08 -34.72,-28.08 -24.55,0 -30.48,0 -30.48,23.7l0 37.4 -85.51 3.38c-2.54,-1.69 -5.93,-1.69 -9.31,-2.54l-26.25 0c0,-25.4 1.69,-60.25 1.69,-78.88l0 -78.17c0,-16.23 0.85,-32.32 0.85,-49.25l79.59 -2.54c7.62,0 16.08,0.85 23.7,0.85 22.86,0 34.72,-5.93 34.72,-30.48 0,-20.32 -4.24,-22.86 -27.1,-22.86l-109.22 0c-2.54,0 -2.54,-31.33 -2.54,-39.8l1.7 -165.1c28.78,0.85 68.58,0.85 104.14,0.85l5.08 0 0 31.32 0 -3.38c0,2.54 1.69,11.85 1.69,17.78 0,17.78 25.4,17.78 49.11,17.78 8.46,0 13.54,-5.93 14.39,-16.09l0 -63.5c1.69,-3.39 1.69,-7.62 1.69,-11.01 0,-22.01 0,-31.32 -26.24,-31.32 -11.01,0 -36.41,0.84 -56.73,0.84 -11.01,0 -20.32,-0.84 -26.25,-0.84l-38.94 0c-1.7,0 -3.39,-0.85 -5.08,-0.85l-102.45 0z"/>
   <path id="9" class="fil2" d="M4236.21 23.57c-33.02,0 -27.94,21.17 -27.94,32.17 0,22.02 0,28.79 23.7,28.79l16.09 0 0 470.75 -12.7 0c-33.02,0 -27.94,21.17 -27.94,32.17 0,22.02 0,28.79 23.71,28.79l5.92 0 82.13 -0.85c34.71,0 34.71,-10.16 34.71,-45.72 0,-8.46 -5.92,-13.54 -16.08,-14.39l-24.56 0 0 -182.03 20.32 0c39.8,7.62 93.14,44.87 102.45,132.92 8.47,82.98 39.79,121.08 114.3,121.08 16.93,0 23.71,-4.24 23.71,-13.55l0 -20.32c0,-7.62 -4.24,-9.31 -14.4,-9.31l-5.08 0c-57.57,0 -56.72,-66.89 -56.72,-104.14 0,-67.74 -47.42,-112.61 -88.9,-126.16 49.1,-9.31 96.52,-55.03 96.52,-145.62 0,-113.46 -82.13,-184.58 -202.36,-184.58l-66.88 0zm71.12 57.57c2.54,-5.92 5.92,-5.08 9.31,-5.08 35.56,0 119.38,37.26 119.38,129.55 0,39.79 -5.93,119.38 -116.84,119.38l-11.85 0 0 -243.85z"/>
   <path class="fil3" d="M1145.37 781.42c0,18.37 -4.63,32.71 -13.85,43.01 -9.25,10.31 -22.01,15.46 -38.31,15.46 -10.06,0 -19,-2.35 -26.82,-7.08 -7.78,-4.73 -13.81,-11.53 -18.06,-20.37 -4.27,-8.83 -6.38,-19.17 -6.38,-31.02 0,-18.37 4.6,-32.67 13.78,-42.91 9.15,-10.24 21.91,-15.36 38.18,-15.36 15.77,0 28.25,5.23 37.54,15.71 9.29,10.48 13.92,24.68 13.92,42.56zm-85.75 0c0,14.37 2.88,25.34 8.63,32.88 5.75,7.54 14.19,11.29 25.38,11.29 11.15,0 19.63,-3.75 25.41,-11.25 5.79,-7.51 8.66,-18.48 8.66,-32.92 0,-14.3 -2.87,-25.17 -8.66,-32.6 -5.78,-7.44 -14.33,-11.15 -25.62,-11.15 -11.19,0 -19.6,3.64 -25.28,10.97 -5.68,7.33 -8.52,18.27 -8.52,32.78z"/>
   <polygon id="1" class="fil3" points="1192.32,837.79 1175.28,837.79 1175.28,725.26 1269.72,725.26 1269.72,837.79 1252.47,837.79 1252.47,739.98 1192.32,739.98 "/>
   <path id="2" class="fil3" d="M1358.31 839.89c-7.32,0 -14.02,-1.36 -20.08,-4.06 -6.03,-2.7 -11.15,-6.87 -15.25,-12.48l-1.23 0c0.81,6.55 1.23,12.79 1.23,18.68l0 46.24 -17.04 0 0 -163.01 13.85 0 2.38 15.35 0.81 0c4.38,-6.17 9.5,-10.62 15.32,-13.35 5.82,-2.74 12.48,-4.11 20.01,-4.11 14.94,0 26.47,5.12 34.6,15.32 8.1,10.21 12.17,24.51 12.17,42.95 0,18.51 -4.14,32.88 -12.38,43.12 -8.27,10.24 -19.7,15.35 -34.39,15.35zm-2.45 -102.22c-11.5,0 -19.84,3.19 -24.96,9.53 -5.15,6.38 -7.78,16.52 -7.92,30.43l0 3.79c0,15.81 2.63,27.13 7.92,33.93 5.26,6.84 13.74,10.24 25.38,10.24 9.71,0 17.35,-3.93 22.86,-11.81 5.5,-7.89 8.27,-18.72 8.27,-32.57 0,-14.02 -2.77,-24.79 -8.27,-32.29 -5.51,-7.5 -13.29,-11.25 -23.28,-11.25z"/>
   <path id="3" class="fil3" d="M1531.98 781.42c0,18.37 -4.63,32.71 -13.85,43.01 -9.25,10.31 -22.01,15.46 -38.31,15.46 -10.06,0 -19,-2.35 -26.82,-7.08 -7.78,-4.73 -13.81,-11.53 -18.06,-20.37 -4.27,-8.83 -6.38,-19.17 -6.38,-31.02 0,-18.37 4.6,-32.67 13.78,-42.91 9.15,-10.24 21.91,-15.36 38.18,-15.36 15.77,0 28.25,5.23 37.54,15.71 9.29,10.48 13.92,24.68 13.92,42.56zm-85.75 0c0,14.37 2.88,25.34 8.63,32.88 5.75,7.54 14.19,11.29 25.38,11.29 11.15,0 19.63,-3.75 25.41,-11.25 5.79,-7.51 8.66,-18.48 8.66,-32.92 0,-14.3 -2.87,-25.17 -8.66,-32.6 -5.78,-7.44 -14.33,-11.15 -25.62,-11.15 -11.19,0 -19.6,3.64 -25.28,10.97 -5.68,7.33 -8.52,18.27 -8.52,32.78z"/>
   <path id="4" class="fil3" d="M1606.87 839.89c-16.3,0 -28.92,-5.01 -37.86,-15.04 -8.94,-10.06 -13.4,-24.26 -13.4,-42.59 0,-18.86 4.53,-33.41 13.61,-43.68 9.08,-10.27 21.98,-15.43 38.77,-15.43 5.4,0 10.8,0.6 16.23,1.76 5.4,1.15 9.64,2.52 12.73,4.13l-5.26 14.48c-3.75,-1.5 -7.86,-2.73 -12.31,-3.75 -4.45,-0.98 -8.38,-1.47 -11.81,-1.47 -22.86,0 -34.29,14.58 -34.29,43.75 0,13.81 2.77,24.43 8.35,31.83 5.61,7.4 13.84,11.08 24.82,11.08 9.36,0 19,-2.03 28.85,-6.07l0 15.15c-7.54,3.89 -17,5.85 -28.43,5.85z"/>
   <path id="5" class="fil3" d="M1679.05 771.74l30.71 0c14.3,0 24.89,2.67 31.79,7.96 6.87,5.29 10.31,13.25 10.31,23.77 0,11.32 -3.65,19.84 -10.94,25.63 -7.29,5.78 -18.02,8.69 -32.18,8.69l-46.73 0 0 -112.53 17.04 0 0 46.48zm108.74 66.05l-17.03 0 0 -112.53 17.03 0 0 112.53zm-108.74 -51.32l0 37.02 28.85 0c18.09,0 27.13,-6.31 27.13,-18.97 0,-6.31 -2.1,-10.87 -6.27,-13.74 -4.17,-2.88 -11.29,-4.31 -21.35,-4.31l-28.36 0z"/>
   <polygon id="6" class="fil3" points="1895.66,837.79 1878.62,837.79 1878.62,725.26 1973.06,725.26 1973.06,837.79 1955.81,837.79 1955.81,739.98 1895.66,739.98 "/>
   <path id="7" class="fil3" d="M2106.42 781.42c0,18.37 -4.63,32.71 -13.85,43.01 -9.25,10.31 -22.01,15.46 -38.31,15.46 -10.06,0 -19,-2.35 -26.82,-7.08 -7.78,-4.73 -13.81,-11.53 -18.06,-20.37 -4.27,-8.83 -6.38,-19.17 -6.38,-31.02 0,-18.37 4.6,-32.67 13.78,-42.91 9.15,-10.24 21.91,-15.36 38.18,-15.36 15.77,0 28.25,5.23 37.54,15.71 9.29,10.48 13.92,24.68 13.92,42.56zm-85.75 0c0,14.37 2.88,25.34 8.63,32.88 5.75,7.54 14.19,11.29 25.38,11.29 11.15,0 19.63,-3.75 25.41,-11.25 5.79,-7.51 8.66,-18.48 8.66,-32.92 0,-14.3 -2.87,-25.17 -8.66,-32.6 -5.78,-7.44 -14.33,-11.15 -25.62,-11.15 -11.19,0 -19.6,3.64 -25.28,10.97 -5.68,7.33 -8.52,18.27 -8.52,32.78z"/>
   <path id="8" class="fil3" d="M2220.25 837.79l-17.24 0 0 -98.02 -33.8 0c-1.86,24.4 -4.45,43.75 -7.71,58.06 -3.3,14.33 -7.57,24.82 -12.8,31.48 -5.25,6.62 -11.92,9.95 -19.98,9.95 -3.71,0 -6.66,-0.42 -8.83,-1.22l0 -12.66c1.51,0.42 3.22,0.63 5.12,0.63 7.88,0 14.16,-8.31 18.82,-24.96 4.66,-16.62 8.17,-41.89 10.59,-75.79l65.83 0 0 112.53z"/>
   <path id="9" class="fil3" d="M2273.44 771.74l34.74 0c28.74,0 43.15,10.59 43.15,31.73 0,11.11 -3.75,19.6 -11.25,25.49 -7.5,5.89 -18.48,8.83 -32.92,8.83l-50.76 0 0 -112.53 17.04 0 0 46.48zm0 14.73l0 37.02 32.88 0c9.04,0 15.99,-1.58 20.75,-4.74 4.81,-3.12 7.23,-7.88 7.23,-14.23 0,-6.24 -2.25,-10.8 -6.67,-13.71 -4.41,-2.91 -11.67,-4.34 -21.8,-4.34l-32.39 0z"/>
   <path id="10" class="fil3" d="M2402.34 771.95c21.32,0 31.94,-5.89 31.94,-17.66 0,-11.08 -8.62,-16.62 -25.87,-16.62 -5.26,0 -10.06,0.49 -14.37,1.44 -4.32,0.94 -9.96,2.87 -16.97,5.74l-6.07 -13.88c11.64,-5.22 24.37,-7.82 38.14,-7.82 12.94,0 23.14,2.67 30.61,7.96 7.47,5.33 11.18,12.55 11.18,21.74 0,12.62 -7.01,20.86 -21.07,24.78l0 0.81c8.66,2.52 14.94,6.13 18.93,10.83 3.97,4.7 5.96,10.59 5.96,17.64 0,10.41 -4.2,18.5 -12.58,24.29 -8.42,5.78 -19.98,8.69 -34.78,8.69 -16.23,0 -28.78,-2.42 -37.61,-7.29l0 -15.63c12.55,5.89 25.2,8.83 38,8.83 9.88,0 17.32,-1.68 22.36,-5.08 5.02,-3.4 7.54,-8.28 7.54,-14.66 0,-13.07 -10.66,-19.59 -31.94,-19.59l-15.63 0 0 -14.52 12.23 0z"/>
   <path id="11" class="fil3" d="M2579.59 781.42c0,18.37 -4.63,32.71 -13.85,43.01 -9.25,10.31 -22.01,15.46 -38.31,15.46 -10.06,0 -19,-2.35 -26.82,-7.08 -7.78,-4.73 -13.81,-11.53 -18.06,-20.37 -4.27,-8.83 -6.38,-19.17 -6.38,-31.02 0,-18.37 4.6,-32.67 13.78,-42.91 9.15,-10.24 21.91,-15.36 38.18,-15.36 15.77,0 28.25,5.23 37.54,15.71 9.29,10.48 13.92,24.68 13.92,42.56zm-85.75 0c0,14.37 2.88,25.34 8.63,32.88 5.75,7.54 14.19,11.29 25.38,11.29 11.15,0 19.63,-3.75 25.41,-11.25 5.79,-7.51 8.66,-18.48 8.66,-32.92 0,-14.3 -2.87,-25.17 -8.66,-32.6 -5.78,-7.44 -14.33,-11.15 -25.62,-11.15 -11.19,0 -19.6,3.64 -25.28,10.97 -5.68,7.33 -8.52,18.27 -8.52,32.78z"/>
   <path id="12" class="fil3" d="M2700.82 753.48c0,7.33 -2.1,12.9 -6.31,16.69 -4.21,3.78 -10.13,6.34 -17.74,7.64l0 0.94c9.61,1.3 16.62,4.11 21.04,8.42 4.41,4.31 6.62,10.27 6.62,17.88 0,10.44 -3.85,18.54 -11.57,24.22 -7.71,5.68 -18.96,8.52 -33.76,8.52l-49.6 0 0 -112.53 49.39 0c27.94,0 41.93,9.39 41.93,28.22zm-13.46 50.41c0,-6.06 -2.31,-10.52 -6.94,-13.29 -4.63,-2.77 -12.27,-4.13 -22.96,-4.13l-30.92 0 0 37.02 31.34 0c19.66,0 29.48,-6.52 29.48,-19.6zm-3.19 -48.8c0,-5.47 -2.1,-9.36 -6.31,-11.67 -4.21,-2.28 -10.59,-3.44 -19.14,-3.44l-32.18 0 0 31.76 28.88 0c10.56,0 17.99,-1.29 22.3,-3.89 4.31,-2.63 6.45,-6.87 6.45,-12.76z"/>
   <path id="13" class="fil3" d="M2798.35 837.79l-3.4 -16.02 -0.84 0c-5.61,7.05 -11.18,11.85 -16.76,14.37 -5.61,2.49 -12.55,3.75 -20.89,3.75 -11.18,0 -19.91,-2.87 -26.26,-8.62 -6.31,-5.78 -9.5,-13.95 -9.5,-24.61 0,-22.75 18.19,-34.67 54.51,-35.76l19.11 -0.63 0 -6.98c0,-8.79 -1.89,-15.32 -5.68,-19.52 -3.82,-4.21 -9.89,-6.31 -18.23,-6.31 -9.39,0 -19.98,2.87 -31.83,8.62l-5.22 -13.04c5.53,-3.01 11.6,-5.4 18.19,-7.12 6.63,-1.71 13.25,-2.55 19.88,-2.55 13.42,0 23.35,2.97 29.83,8.93 6.49,5.96 9.71,15.5 9.71,28.65l0 76.84 -12.62 0zm-38.53 -11.99c10.63,0 18.97,-2.91 25,-8.73 6.06,-5.82 9.11,-13.95 9.11,-24.43l0 -10.17 -17.07 0.74c-13.53,0.45 -23.31,2.56 -29.31,6.31 -5.99,3.71 -8.97,9.53 -8.97,17.39 0,6.17 1.86,10.86 5.61,14.05 3.71,3.23 8.94,4.84 15.63,4.84z"/>
   <polygon id="14" class="fil3" points="2922.06,739.77 2885.46,739.77 2885.46,837.79 2868.43,837.79 2868.43,739.77 2832.25,739.77 2832.25,725.26 2922.06,725.26 "/>
   <path id="15" class="fil3" d="M2989.79 839.89c-16.66,0 -29.77,-5.08 -39.37,-15.21 -9.64,-10.13 -14.45,-24.23 -14.45,-42.24 0,-18.16 4.46,-32.57 13.4,-43.26 8.94,-10.7 20.92,-16.03 36,-16.03 14.09,0 25.27,4.63 33.48,13.92 8.2,9.29 12.34,21.53 12.34,36.71l0 10.79 -77.55 0c0.35,13.22 3.68,23.25 9.99,30.12 6.35,6.83 15.25,10.27 26.79,10.27 12.09,0 24.08,-2.52 35.93,-7.61l0 15.22c-6.03,2.63 -11.74,4.48 -17.11,5.64 -5.36,1.12 -11.85,1.68 -19.45,1.68zm-4.63 -102.43c-9.05,0 -16.23,2.94 -21.6,8.83 -5.4,5.86 -8.55,13.99 -9.5,24.4l58.83 0c0,-10.73 -2.39,-18.96 -7.19,-24.68 -4.8,-5.71 -11.64,-8.55 -20.54,-8.55z"/>
   <path id="16" class="fil3" d="M3144.17 837.79l-17.24 0 0 -98.02 -33.8 0c-1.86,24.4 -4.45,43.75 -7.71,58.06 -3.3,14.33 -7.57,24.82 -12.8,31.48 -5.25,6.62 -11.92,9.95 -19.98,9.95 -3.71,0 -6.66,-0.42 -8.83,-1.22l0 -12.66c1.51,0.42 3.22,0.63 5.12,0.63 7.88,0 14.16,-8.31 18.82,-24.96 4.66,-16.62 8.17,-41.89 10.59,-75.79l65.83 0 0 112.53z"/>
   <path id="17" class="fil3" d="M3227.86 839.89c-16.66,0 -29.77,-5.08 -39.37,-15.21 -9.64,-10.13 -14.45,-24.23 -14.45,-42.24 0,-18.16 4.46,-32.57 13.4,-43.26 8.94,-10.7 20.92,-16.03 36,-16.03 14.09,0 25.27,4.63 33.48,13.92 8.2,9.29 12.34,21.53 12.34,36.71l0 10.79 -77.55 0c0.35,13.22 3.68,23.25 9.99,30.12 6.35,6.83 15.25,10.27 26.79,10.27 12.09,0 24.08,-2.52 35.93,-7.61l0 15.22c-6.03,2.63 -11.74,4.48 -17.11,5.64 -5.36,1.12 -11.85,1.68 -19.45,1.68zm-4.63 -102.43c-9.05,0 -16.23,2.94 -21.6,8.83 -5.4,5.86 -8.55,13.99 -9.5,24.4l58.83 0c0,-10.73 -2.39,-18.96 -7.19,-24.68 -4.8,-5.71 -11.64,-8.55 -20.54,-8.55z"/>
   <path id="18" class="fil3" d="M3314.34 725.26l0 71.34 -0.74 18.72 -0.28 5.85 60.93 -95.91 21.25 0 0 112.53 -15.92 0 0 -68.78 0.32 -13.57 0.52 -13.35 -60.86 95.7 -21.24 0 0 -112.53 16.02 0zm32.15 -14.94c-12.66,0 -21.88,-2.45 -27.7,-7.36 -5.82,-4.87 -9.08,-12.97 -9.78,-24.19l16.02 0c0.63,7.12 2.49,12.1 5.61,14.9 3.12,2.81 8.56,4.21 16.27,4.21 7.04,0 12.27,-1.51 15.67,-4.52 3.4,-3.02 5.47,-7.86 6.2,-14.59l16.13 0c-0.81,10.84 -4.28,18.79 -10.38,23.91 -6.1,5.08 -15.42,7.64 -28.04,7.64z"/>
   <polygon id="19" class="fil3" points="3502.31,725.26 3502.31,796.6 3501.57,815.32 3501.29,821.17 3562.22,725.26 3583.47,725.26 3583.47,837.79 3567.55,837.79 3567.55,769.01 3567.87,755.44 3568.39,742.09 3507.53,837.79 3486.29,837.79 3486.29,725.26 "/>
   <polygon id="20" class="fil3" points="3636.65,725.26 3636.65,772.37 3699.75,772.37 3699.75,725.26 3716.79,725.26 3716.79,837.79 3699.75,837.79 3699.75,787.1 3636.65,787.1 3636.65,837.79 3619.61,837.79 3619.61,725.26 "/>
   <polygon id="21" class="fil3" points="3828.86,739.77 3792.26,739.77 3792.26,837.79 3775.23,837.79 3775.23,739.77 3739.05,739.77 3739.05,725.26 3828.86,725.26 "/>
   <path id="22" class="fil3" d="M3896.59 839.89c-16.66,0 -29.77,-5.08 -39.37,-15.21 -9.64,-10.13 -14.45,-24.23 -14.45,-42.24 0,-18.16 4.46,-32.57 13.4,-43.26 8.94,-10.7 20.92,-16.03 36,-16.03 14.09,0 25.27,4.63 33.48,13.92 8.2,9.29 12.34,21.53 12.34,36.71l0 10.79 -77.55 0c0.35,13.22 3.68,23.25 9.99,30.12 6.35,6.83 15.25,10.27 26.79,10.27 12.09,0 24.08,-2.52 35.93,-7.61l0 15.22c-6.03,2.63 -11.74,4.48 -17.11,5.64 -5.36,1.12 -11.85,1.68 -19.45,1.68zm-4.63 -102.43c-9.05,0 -16.23,2.94 -21.6,8.83 -5.4,5.86 -8.55,13.99 -9.5,24.4l58.83 0c0,-10.73 -2.39,-18.96 -7.19,-24.68 -4.8,-5.71 -11.64,-8.55 -20.54,-8.55z"/>
   <path id="23" class="fil3" d="M4019.42 839.89c-7.32,0 -14.02,-1.36 -20.08,-4.06 -6.03,-2.7 -11.15,-6.87 -15.25,-12.48l-1.23 0c0.81,6.55 1.23,12.79 1.23,18.68l0 46.24 -17.04 0 0 -163.01 13.85 0 2.38 15.35 0.81 0c4.38,-6.17 9.5,-10.62 15.32,-13.35 5.82,-2.74 12.48,-4.11 20.01,-4.11 14.94,0 26.47,5.12 34.6,15.32 8.1,10.21 12.17,24.51 12.17,42.95 0,18.51 -4.14,32.88 -12.38,43.12 -8.27,10.24 -19.7,15.35 -34.39,15.35zm-2.45 -102.22c-11.5,0 -19.84,3.19 -24.96,9.53 -5.15,6.38 -7.78,16.52 -7.92,30.43l0 3.79c0,15.81 2.63,27.13 7.92,33.93 5.26,6.84 13.74,10.24 25.38,10.24 9.71,0 17.35,-3.93 22.86,-11.81 5.5,-7.89 8.27,-18.72 8.27,-32.57 0,-14.02 -2.77,-24.79 -8.27,-32.29 -5.51,-7.5 -13.29,-11.25 -23.28,-11.25z"/>
   <polygon id="24" class="fil3" points="4112.99,725.26 4112.99,772.37 4176.09,772.37 4176.09,725.26 4193.13,725.26 4193.13,837.79 4176.09,837.79 4176.09,787.1 4112.99,787.1 4112.99,837.79 4095.95,837.79 4095.95,725.26 "/>
   <path id="25" class="fil3" d="M4276.81 839.89c-16.66,0 -29.77,-5.08 -39.37,-15.21 -9.64,-10.13 -14.45,-24.23 -14.45,-42.24 0,-18.16 4.46,-32.57 13.4,-43.26 8.94,-10.7 20.92,-16.03 36,-16.03 14.09,0 25.27,4.63 33.48,13.92 8.2,9.29 12.34,21.53 12.34,36.71l0 10.79 -77.55 0c0.35,13.22 3.68,23.25 9.99,30.12 6.35,6.83 15.25,10.27 26.79,10.27 12.09,0 24.08,-2.52 35.93,-7.61l0 15.22c-6.03,2.63 -11.74,4.48 -17.11,5.64 -5.36,1.12 -11.85,1.68 -19.45,1.68zm-4.63 -102.43c-9.05,0 -16.23,2.94 -21.6,8.83 -5.4,5.86 -8.55,13.99 -9.5,24.4l58.83 0c0,-10.73 -2.39,-18.96 -7.19,-24.68 -4.8,-5.71 -11.64,-8.55 -20.54,-8.55z"/>
   <polygon id="26" class="fil3" points="4423.2,739.77 4386.6,739.77 4386.6,837.79 4369.57,837.79 4369.57,739.77 4333.39,739.77 4333.39,725.26 4423.2,725.26 "/>
   <path id="27" class="fil3" d="M4514.66 837.79l-3.4 -16.02 -0.84 0c-5.61,7.05 -11.18,11.85 -16.76,14.37 -5.61,2.49 -12.55,3.75 -20.89,3.75 -11.18,0 -19.91,-2.87 -26.26,-8.62 -6.31,-5.78 -9.5,-13.95 -9.5,-24.61 0,-22.75 18.19,-34.67 54.51,-35.76l19.11 -0.63 0 -6.98c0,-8.79 -1.89,-15.32 -5.68,-19.52 -3.82,-4.21 -9.89,-6.31 -18.23,-6.31 -9.39,0 -19.98,2.87 -31.83,8.62l-5.22 -13.04c5.53,-3.01 11.6,-5.4 18.19,-7.12 6.63,-1.71 13.25,-2.55 19.88,-2.55 13.42,0 23.35,2.97 29.83,8.93 6.49,5.96 9.71,15.5 9.71,28.65l0 76.84 -12.62 0zm-38.53 -11.99c10.63,0 18.97,-2.91 25,-8.73 6.06,-5.82 9.11,-13.95 9.11,-24.43l0 -10.17 -17.07 0.74c-13.53,0.45 -23.31,2.56 -29.31,6.31 -5.99,3.71 -8.97,9.53 -8.97,17.39 0,6.17 1.86,10.86 5.61,14.05 3.71,3.23 8.94,4.84 15.63,4.84z"/>
  </g>
 </g>
</svg>
